<svg xmlns="http://www.w3.org/2000/svg" width="1600" height="1000" viewBox="0 0 1600 1000" role="img" aria-label="Gear and room details framed for musicians, not casual visitors.">
  <defs>
    <linearGradient id="bg" x1="0" x2="1" y1="0" y2="1">
      <stop offset="0" stop-color="#0f1012"/>
      <stop offset="0.55" stop-color="#e33f64"/>
      <stop offset="1" stop-color="#ffd166"/>
    </linearGradient>
    <radialGradient id="glow" cx="70%" cy="20%" r="65%">
      <stop offset="0" stop-color="#fff8ee" stop-opacity=".9"/>
      <stop offset=".45" stop-color="#ffd166" stop-opacity=".25"/>
      <stop offset="1" stop-color="#0f1012" stop-opacity="0"/>
    </radialGradient>
  </defs>
  <rect width="1600" height="1000" fill="url(#bg)"/>
  <rect width="1600" height="1000" fill="url(#glow)"/>
  <g fill="none" stroke="#fff8ee" stroke-opacity=".24" stroke-width="2">
    <path d="M120 210 H1480 M120 430 H1480 M120 650 H1480 M120 870 H1480"/>
    <path d="M280 80 V920 M560 80 V920 M840 80 V920 M1120 80 V920 M1400 80 V920"/>
  </g>
  <circle cx="1260" cy="240" r="170" fill="#fff8ee" opacity=".16"/>
  <circle cx="1260" cy="240" r="92" fill="#0f1012" opacity=".45"/>
  <g fill="#fff8ee" opacity=".55"><rect x="960" y="520" width="34" height="160"/><rect x="1024" y="455" width="34" height="225"/><rect x="1088" y="360" width="34" height="320"/><rect x="1152" y="430" width="34" height="250"/><rect x="1216" y="300" width="34" height="380"/><rect x="1280" y="480" width="34" height="200"/></g><path d="M920 286c96 84 176-90 278-8 84 68 144 20 230-64" fill="none" stroke="#ffd166" stroke-width="10" opacity=".65"/>
  <rect x="120" y="590" width="760" height="190" rx="28" fill="#0f1012" opacity=".62"/>
  <text x="160" y="675" font-family="Arial, Helvetica, sans-serif" font-size="74" font-weight="900" fill="#fff8ee">Gear and room details framed for musicians, not casual visitors.</text>
  <text x="164" y="735" font-family="Arial, Helvetica, sans-serif" font-size="32" font-weight="700" fill="#ffd166">Pisang Candi studio area</text>
  <text x="128" y="146" font-family="Arial, Helvetica, sans-serif" font-size="26" font-weight="800" fill="#fff8ee" opacity=".74">EQUIPMENT</text>
</svg>