<svg xmlns="http://www.w3.org/2000/svg" width="1600" height="1000" viewBox="0 0 1600 1000" role="img" aria-label="Choose room or production">
  <defs>
    <linearGradient id="bg" x1="0" x2="1" y1="0" y2="1"><stop offset="0" stop-color="#0b0b0d"/><stop offset=".58" stop-color="#17171b"/><stop offset="1" stop-color="#ff3f6c"/></linearGradient>
    <pattern id="grain" width="48" height="48" patternUnits="userSpaceOnUse"><path d="M0 48L48 0M-12 12L12-12M36 60L60 36" stroke="#b6aa9a" stroke-opacity=".13"/></pattern>
  </defs>
  <rect width="1600" height="1000" fill="url(#bg)"/>
  <rect width="1600" height="1000" fill="url(#grain)"/>
  <g fill="none" stroke="#fff7ea" stroke-opacity=".18" stroke-width="2"><path d="M120 210H1480M120 430H1480M120 650H1480M120 870H1480"/><path d="M280 80V920M560 80V920M840 80V920M1120 80V920M1400 80V920"/></g>
  <g fill="#ff3f6c" opacity=".65"><rect x="940" y="620" width="22" height="90"/><rect x="982" y="565" width="22" height="145"/><rect x="1024" y="510" width="22" height="200"/><rect x="1066" y="455" width="22" height="255"/><rect x="1108" y="400" width="22" height="310"/><rect x="1150" y="620" width="22" height="90"/><rect x="1192" y="565" width="22" height="145"/><rect x="1234" y="510" width="22" height="200"/><rect x="1276" y="455" width="22" height="255"/><rect x="1318" y="400" width="22" height="310"/></g>
  <rect x="118" y="586" width="790" height="204" rx="28" fill="#0b0b0d" opacity=".72"/>
  <text x="160" y="676" font-family="Arial, Helvetica, sans-serif" font-size="72" font-weight="900" fill="#fff7ea">Choose room or production</text>
  <text x="164" y="736" font-family="Arial, Helvetica, sans-serif" font-size="30" font-weight="700" fill="#ffd166">Equalizer pulses, horizontal waveform drift, section cuts that feel like track markers.</text>
  <text x="128" y="146" font-family="Arial, Helvetica, sans-serif" font-size="26" font-weight="800" fill="#fff7ea" opacity=".74">WORKFLOW</text>
</svg>